<svg width="23" height="22" viewBox="0 0 23 22" fill="none" xmlns="http://www.w3.org/2000/svg">
<path opacity="0.4" d="M20.6449 11.6937V11.223C20.6449 9.63767 20.6449 8.36698 20.5731 7.33331H3.29995C3.22819 8.36698 3.22819 9.63767 3.22819 11.223V11.6937C3.22819 15.6879 3.22819 17.685 4.37597 18.9258C5.52374 20.1666 7.37106 20.1666 11.0657 20.1666H12.8074C16.502 20.1666 18.3493 20.1666 19.4971 18.9258C20.6449 17.685 20.6449 15.6879 20.6449 11.6937Z" fill="currentColor"/>
<path d="M17.4365 1.83331V3.66665M6.43652 1.83331V3.66665" stroke="currentColor" stroke-width="1.5" stroke-linecap="round" stroke-linejoin="round"/>
<path d="M3.22819 11.223C3.22819 7.22877 3.22819 5.23168 4.37597 3.99084C5.52374 2.75 7.37106 2.75 11.0657 2.75H12.8074C16.502 2.75 18.3493 2.75 19.4971 3.99084C20.6449 5.23168 20.6449 7.22877 20.6449 11.223V11.6937C20.6449 15.6879 20.6449 17.685 19.4971 18.9258C18.3493 20.1667 16.502 20.1667 12.8074 20.1667H11.0657C7.37106 20.1667 5.52374 20.1667 4.37597 18.9258C3.22819 17.685 3.22819 15.6879 3.22819 11.6937V11.223Z" stroke="currentColor" stroke-width="1.5" stroke-linecap="round" stroke-linejoin="round"/>
<path d="M3.68652 7.33331H20.1865" stroke="currentColor" stroke-width="1.5" stroke-linecap="round" stroke-linejoin="round"/>
</svg>
