<svg width="21" height="20" viewBox="0 0 21 20" fill="none" xmlns="http://www.w3.org/2000/svg">
<path d="M19.6032 10C19.6032 15.0626 15.4991 19.1667 10.4365 19.1667C5.37392 19.1667 1.26987 15.0626 1.26987 10C1.26987 4.9374 5.37392 0.833344 10.4365 0.833344C15.4991 0.833344 19.6032 4.9374 19.6032 10Z" stroke="currentColor" stroke-width="1.5"/>
<path d="M16.7181 3.32428C15.9717 7.63676 12.212 10.9166 7.68614 10.9166C5.25497 10.9166 3.04486 9.97019 1.40414 8.42565M19.4286 8.21257C17.4883 12.5096 13.1656 15.5 8.14447 15.5C5.97726 15.5 3.94016 14.9429 2.16857 13.9641M2.78628 4.94765C3.88058 5.81521 5.26452 6.3333 6.76947 6.3333C9.86923 6.3333 12.4556 4.13532 13.0551 1.21289" stroke="currentColor" stroke-width="1.5" stroke-linecap="round" stroke-linejoin="round"/>
</svg>
