<svg width="21" height="20" viewBox="0 0 21 20" fill="none" xmlns="http://www.w3.org/2000/svg">
<path d="M14.2699 6.33331C14.0464 7.00374 13.5866 7.51835 12.9358 7.80688C10.8454 8.7336 9.33683 10.2422 8.41011 12.3325C8.12158 12.9834 7.60696 13.4432 6.93654 13.6666" fill="currentColor"/>
<path d="M14.2699 6.33331C14.0464 7.00374 13.5866 7.51835 12.9358 7.80688C10.8454 8.7336 9.33683 10.2422 8.41011 12.3325C8.12158 12.9834 7.60696 13.4432 6.93654 13.6666" stroke="currentColor" stroke-width="1.5" stroke-linejoin="round"/>
<path d="M2.53654 18.0666L1.43654 19.1666M18.6699 1.93331L19.7699 0.833313" stroke="currentColor" stroke-width="1.5" stroke-linecap="round" stroke-linejoin="round"/>
<path d="M15.9091 1.22017L14.5229 2.55222L18.0434 6.10565L19.3979 4.79049C19.8044 4.31162 19.9289 3.9509 19.4228 3.28652L18.4092 2.22052L17.3816 1.20687C16.7247 0.617674 16.2073 0.934695 15.9091 1.22017Z" stroke="currentColor" stroke-width="1.5" stroke-linecap="round" stroke-linejoin="round"/>
<path d="M12.4471 2.44447C13.4651 1.36847 14.1624 2.13427 14.5204 2.5607L18.0108 6.06509C18.4452 6.41337 19.24 7.08158 18.1895 8.12207C18.02 8.28996 17.8539 8.46576 17.6697 8.61733C16.9896 9.17675 16.3369 8.71296 15.9911 8.28687L12.4383 4.73415C12.0642 4.39813 11.418 3.78932 11.9638 2.97553C12.111 2.78772 12.2831 2.61777 12.4471 2.44447Z" stroke="currentColor" stroke-width="1.5" stroke-linecap="round" stroke-linejoin="round"/>
<path d="M3.80835 18.8185L2.76212 17.7844L1.76849 16.7374C1.17887 16.1478 1.51904 15.5582 1.81022 15.2655L3.16878 13.9053L6.70399 17.4558L5.31252 18.8226C4.82589 19.2198 4.49223 19.3414 3.83775 18.8226M5.30793 11.764C4.94986 11.3376 4.25263 10.5718 3.23457 11.6478C3.0706 11.8211 2.89845 11.991 2.75133 12.1788C2.20547 12.9926 2.85174 13.6014 3.22582 13.9374L6.77862 17.4902C7.12443 17.9162 7.77711 18.38 8.45715 17.8206C8.64139 17.669 8.80752 17.4932 8.97702 17.3254C10.0275 16.2849 9.23271 15.6166 8.79829 15.2684L5.30793 11.764Z" stroke="currentColor" stroke-width="1.5" stroke-linecap="round" stroke-linejoin="round"/>
</svg>
