<svg width="34" height="23" viewBox="0 0 34 23" fill="none" xmlns="http://www.w3.org/2000/svg">
<g clip-path="url(#clip0_64_137)">
<path d="M18.3833 4.72083L18.0685 4.39587C18.0685 4.39587 17.6241 5.03826 17.1415 5.76048C17.4101 5.75275 17.6798 5.74501 17.9515 5.73686C18.1227 5.20941 18.383 4.72062 18.383 4.72062L18.3833 4.72083Z" fill="white"/>
<path d="M11.7865 8.64862L10.5972 10.1306L12.0658 11.3306L13.255 9.84867L11.7865 8.64862Z" fill="white"/>
<path d="M20.3291 9.21764L19.6528 11.9406L20.7079 13.311C21.5659 14.4387 22.6173 15.9038 22.854 16.5215C22.854 16.5215 23.2226 17.2596 23.2481 17.9279H23.4773C23.4773 17.9279 23.5289 15.4137 23.0911 14.5891L20.3293 9.21722L20.3291 9.21764Z" fill="white"/>
<path d="M28.1888 5.22115C28.1857 5.23369 28.1838 5.24916 28.1819 5.26755C28.1656 5.43661 28.1776 5.91432 28.3269 7.23149C28.3269 7.23274 28.3273 7.23421 28.3273 7.23567C28.5814 7.21226 28.7415 7.19513 28.7732 7.18614C29.0221 7.11509 31.3757 4.21139 31.3757 4.21139L30.9804 3.99426C30.9804 3.99426 30.4403 4.52255 29.8935 4.83894C29.7283 4.93444 29.0664 5.07153 28.1886 5.22115C28.1886 5.22115 28.1886 5.22115 28.1886 5.22136L28.1888 5.22115Z" fill="white"/>
<path d="M28.1569 7.25086C28.0492 6.30128 27.984 5.53768 28.0118 5.25055C28.0144 5.22192 28.0182 5.19789 28.0229 5.17888C28.1758 4.56198 28.5324 3.89368 28.5324 3.89368L28.2176 3.56873C28.2176 3.56873 27.5559 4.52499 26.9705 5.41648C26.506 6.12386 26.0895 6.79028 26.0895 6.90584C26.0895 6.9422 26.1214 7.1261 26.1761 7.4195C26.5147 9.23528 27.7328 15.2613 27.7577 16.685C27.7864 18.3391 27.6139 19.1515 27.499 19.5287C27.3839 19.9062 27.0101 20.6025 27.0101 20.6025L27.4126 20.7184C27.4126 20.7184 29.0518 17.0911 29.1381 16.4238C29.2243 15.7563 29.1093 14.3635 28.9366 13.0867C28.8221 12.2397 28.3903 9.30842 28.1571 7.25065L28.1569 7.25086Z" fill="white"/>
<path d="M25.448 5.67881C25.4004 5.81506 25.3635 5.93564 25.3358 6.04786C25.3209 6.10762 25.2985 6.36529 25.4097 7.46366C25.4099 7.46638 25.4103 7.4693 25.4105 7.47181C25.6431 7.45885 25.8435 7.4461 26.004 7.43378C25.9245 7.00642 25.9179 6.94122 25.9179 6.90611C25.9179 6.82942 25.9204 6.71093 26.7425 5.45123C26.5313 5.48321 26.3182 5.51518 26.103 5.54673C25.9657 5.5668 25.7504 5.58728 25.4733 5.60775C25.4646 5.63137 25.4561 5.65498 25.4476 5.67881H25.448Z" fill="white"/>
<path d="M25.2396 7.48138C25.1634 6.73012 25.1286 6.17216 25.1698 6.00602C25.2015 5.87771 25.2423 5.74752 25.2866 5.62109C25.4554 5.14024 25.6791 4.72083 25.6791 4.72083L25.3645 4.39587C25.3645 4.39587 24.9576 4.98393 24.4997 5.6679C24.0186 6.38636 23.482 7.20888 23.3008 7.56727C23.26 7.64794 23.2364 7.70624 23.2364 7.7332C23.2364 7.99421 24.8758 15.8583 24.9043 17.5124L15.9239 21.2697L16.0257 21.7322L23.0051 21.1153C23.0051 21.1153 23.9221 20.2414 25.2721 18.1851C26.6222 16.1288 26.0835 13.914 26.0835 13.914C25.9574 12.9812 25.4463 9.51931 25.2398 7.48138H25.2396Z" fill="white"/>
<path d="M17.9756 18.185C19.1881 16.1608 18.7872 13.9139 18.7872 13.9139C18.6698 13.0459 18.2191 9.98815 17.9907 7.92557L15.9805 7.99307C16.2319 9.40637 17.5821 16.0123 17.6082 17.5121C17.6082 17.5121 16.3448 18.2086 15.2254 18.1279C14.1063 18.0473 13.8665 17.7649 13.8665 17.7649C13.8665 17.7649 14.9057 15.5776 14.8257 15.0378C14.7458 14.4978 13.0671 11.8762 12.1079 11.9569C11.1486 12.0376 9.78971 15.0221 9.86944 15.5868C9.94938 16.1514 11.2685 17.9277 11.2685 17.9277C11.2685 17.9277 10.8461 18.512 9.67416 18.697C8.90751 18.818 7.88966 18.5519 7.67221 18.3703L6.79995 10.3116L6.66679 9.15058C6.6233 9.03711 6.90515 8.88915 7.31602 8.73472C8.51176 8.28501 10.7311 8.07457 10.7311 8.07457C12.2659 7.99223 13.4055 7.90781 15.8189 7.82547C15.8629 7.8238 15.937 7.8215 15.9529 7.82087C16.6651 7.79663 17.3854 7.7726 18.0982 7.74878C19.9111 7.68818 21.6715 7.62966 23.1075 7.57428C23.1187 7.54879 23.1317 7.52079 23.1481 7.4884C23.2951 7.19771 23.6782 6.58855 24.2856 5.67847C22.6846 5.75955 20.3348 5.83896 18.0417 5.90709C17.6666 5.91816 17.2932 5.92903 16.9248 5.93948C13.8427 6.02725 12.2835 6.09056 12.0087 6.10415C10.1633 6.19484 9.38465 6.55177 8.77186 6.81717C8.15908 7.08299 4.86862 9.69099 4.86862 9.69099C5.15089 12.4697 5.40374 13.8247 5.75311 15.8014C6.13477 17.9591 7.81241 21.5158 9.38154 21.5158C10.1598 21.5158 12.4274 19.5799 12.4274 19.5799C12.7472 19.9832 14.4261 21.1528 15.7086 21.115C15.7086 21.115 16.7113 20.2956 17.9756 18.1848V18.185ZM13.1187 16.9324C12.6445 17.3988 12.3769 17.595 12.3769 17.595C12.3769 17.595 12.1093 17.3988 11.6351 16.9324C11.1609 16.4659 10.8933 15.7788 10.8933 15.7788C10.8933 15.7788 11.4769 14.5515 12.3769 14.4535C13.2769 14.5515 13.8605 15.7788 13.8605 15.7788C13.8605 15.7788 13.5929 16.4659 13.1187 16.9324Z" fill="white"/>
</g>
<path d="M4.40639 1.88855L4.40639 8.18115M7.2031 5.03485L1.60968 5.03485" stroke="white" stroke-width="1.57315" stroke-linecap="round" stroke-linejoin="round"/>
<defs>
<clipPath id="clip0_64_137">
<rect width="26.5076" height="18.1766" fill="white" transform="translate(4.86887 3.62183)"/>
</clipPath>
</defs>
</svg>
