<svg width="25" height="24" viewBox="0 0 25 24" fill="none" xmlns="http://www.w3.org/2000/svg">
<path d="M2.96645 14.7696C2.75379 16.1636 3.70452 17.1312 4.86858 17.6134C9.33133 19.4622 15.5417 19.4622 20.0045 17.6134C21.1685 17.1312 22.1193 16.1636 21.9066 14.7696C21.7759 13.9129 21.1297 13.1995 20.6509 12.5029C20.0238 11.5793 19.9615 10.5718 19.9614 9.5C19.9614 5.35786 16.5924 2 12.4365 2C8.28065 2 4.91165 5.35786 4.91165 9.5C4.91156 10.5718 4.84925 11.5793 4.22213 12.5029C3.74336 13.1995 3.09714 13.9129 2.96645 14.7696Z" stroke="currentColor" stroke-width="1.5" stroke-linecap="round" stroke-linejoin="round"/>
<path d="M8.43652 19C8.89501 20.7252 10.5121 22 12.4365 22C14.361 22 15.978 20.7252 16.4365 19" stroke="currentColor" stroke-width="1.5" stroke-linecap="round" stroke-linejoin="round"/>
</svg>
