<svg width="19" height="18" viewBox="0 0 19 18" fill="none" xmlns="http://www.w3.org/2000/svg">
<path d="M1.18652 4.41666H3.93652" stroke="white" stroke-width="1.5" stroke-linecap="round" stroke-linejoin="round"/>
<path d="M1.18652 13.5833H6.68652" stroke="white" stroke-width="1.5" stroke-linecap="round" stroke-linejoin="round"/>
<path d="M14.9365 13.5833L17.6865 13.5833" stroke="white" stroke-width="1.5" stroke-linecap="round" stroke-linejoin="round"/>
<path d="M12.1865 4.41666L17.6865 4.41666" stroke="white" stroke-width="1.5" stroke-linecap="round" stroke-linejoin="round"/>
<path d="M3.93652 4.41666C3.93652 3.56243 3.93652 3.13532 4.07608 2.7984C4.26215 2.34919 4.61905 1.99228 5.06827 1.80621C5.40518 1.66666 5.8323 1.66666 6.68652 1.66666C7.54075 1.66666 7.96786 1.66666 8.30478 1.80621C8.75399 1.99228 9.1109 2.34919 9.29697 2.7984C9.43652 3.13532 9.43652 3.56243 9.43652 4.41666C9.43652 5.27088 9.43652 5.698 9.29697 6.03491C9.1109 6.48413 8.75399 6.84103 8.30478 7.0271C7.96786 7.16666 7.54075 7.16666 6.68652 7.16666C5.8323 7.16666 5.40518 7.16666 5.06827 7.0271C4.61905 6.84103 4.26215 6.48413 4.07608 6.03491C3.93652 5.698 3.93652 5.27088 3.93652 4.41666Z" stroke="white" stroke-width="1.5"/>
<path d="M9.43652 13.5833C9.43652 12.7291 9.43652 12.302 9.57608 11.9651C9.76215 11.5158 10.1191 11.1589 10.5683 10.9729C10.9052 10.8333 11.3323 10.8333 12.1865 10.8333C13.0407 10.8333 13.4679 10.8333 13.8048 10.9729C14.254 11.1589 14.6109 11.5158 14.797 11.9651C14.9365 12.302 14.9365 12.7291 14.9365 13.5833C14.9365 14.4375 14.9365 14.8647 14.797 15.2016C14.6109 15.6508 14.254 16.0077 13.8048 16.1938C13.4679 16.3333 13.0407 16.3333 12.1865 16.3333C11.3323 16.3333 10.9052 16.3333 10.5683 16.1938C10.1191 16.0077 9.76215 15.6508 9.57608 15.2016C9.43652 14.8647 9.43652 14.4375 9.43652 13.5833Z" stroke="white" stroke-width="1.5"/>
</svg>
