<svg width="74" height="73" viewBox="0 0 74 73" fill="none" xmlns="http://www.w3.org/2000/svg">
<circle cx="23.249" cy="22.8125" r="4.5625" stroke="currentColor" stroke-width="1.5" stroke-linecap="round" stroke-linejoin="round"/>
<path d="M8.04068 36.5C8.04068 22.8784 8.04068 16.0676 12.2724 11.8359C16.5041 7.60419 23.3149 7.60419 36.9365 7.60419C50.5581 7.60419 57.369 7.60419 61.6007 11.8359C65.8323 16.0676 65.8323 22.8784 65.8323 36.5C65.8323 50.1216 65.8323 56.9325 61.6007 61.1642C57.369 65.3959 50.5581 65.3959 36.9365 65.3959C23.3149 65.3959 16.5041 65.3959 12.2724 61.1642C8.04068 56.9325 8.04068 50.1216 8.04068 36.5Z" stroke="currentColor" stroke-width="1.5"/>
<path d="M15.6448 63.875C28.9444 47.9823 43.8535 27.0224 65.8246 41.1915" stroke="currentColor" stroke-width="1.5"/>
</svg>
