<svg width="19" height="20" viewBox="0 0 19 20" fill="none" xmlns="http://www.w3.org/2000/svg">
<path d="M5.66534 8.16669C6.29394 9.44713 6.96557 10.6462 6.81045 12.1214C6.56248 14.4797 3.70289 15.3673 1.87422 16.4538C0.676166 17.1655 1.1241 19.1667 2.59436 19.1667C4.37696 19.1667 5.96792 19.0245 7.57624 18.2684L10.73 16.3276C11.1678 16.1218 11.7202 16.2095 12.1865 16.4167" stroke="currentColor" stroke-width="1.5" stroke-linecap="round" stroke-linejoin="round"/>
<path d="M13.1128 8.16669C12.4709 9.44713 11.785 10.6462 11.9434 12.1214C12.1967 14.4797 15.1168 15.3673 16.9843 16.4538C18.2077 17.1655 17.7503 19.1667 16.2489 19.1667C14.4285 19.1667 12.8038 19.0244 11.1614 18.2684L7.94081 16.3276C7.56487 16.1546 7.10615 16.189 6.68652 16.3276" stroke="currentColor" stroke-width="1.5" stroke-linecap="round" stroke-linejoin="round"/>
<path d="M7.6032 2.66668C7.6032 3.6792 8.42401 4.50001 9.43653 4.50001C10.4491 4.50001 11.2699 3.6792 11.2699 2.66668C11.2699 1.65415 10.4491 0.833344 9.43653 0.833344C8.42401 0.833344 7.6032 1.65415 7.6032 2.66668Z" stroke="currentColor" stroke-width="1.5"/>
<path d="M1.18652 13.6667C3.42856 13.6667 4.4349 11.187 4.75542 9.47669C4.8391 9.03023 4.97461 8.58513 5.27142 8.24128C6.28 7.07286 7.7719 6.33334 9.43652 6.33334C11.1011 6.33334 12.5931 7.07286 13.6016 8.24128C13.8984 8.58513 14.0339 9.03023 14.1176 9.47669C14.4382 11.187 15.4445 13.6667 17.6865 13.6667" stroke="currentColor" stroke-width="1.5" stroke-linecap="round" stroke-linejoin="round"/>
</svg>
